<?xml version="1.0" standalone="no"?>
<!DOCTYPE svg PUBLIC "-//W3C//DTD SVG 20010904//EN"
 "http://www.w3.org/TR/2001/REC-SVG-20010904/DTD/svg10.dtd">
<svg version="1.0" xmlns="http://www.w3.org/2000/svg"
 width="261.000000pt" height="261.000000pt" viewBox="0 0 261.000000 261.000000"
 preserveAspectRatio="xMidYMid meet">
<metadata>
Created by potrace 1.11, written by Peter Selinger 2001-2013
</metadata>
<g transform="translate(0.000000,261.000000) scale(0.100000,-0.100000)"
fill="#000000" stroke="none">
<path d="M1248 2445 c-2 -2 -37 -6 -78 -9 -41 -4 -88 -9 -105 -11 -76 -12
-113 -17 -146 -20 -20 -2 -81 -11 -135 -20 -55 -9 -117 -19 -139 -22 -68 -9
-75 -19 -30 -39 58 -25 142 -43 173 -38 34 6 28 1 -78 -71 -47 -32 -117 -82
-157 -112 -171 -128 -312 -325 -388 -543 -21 -59 -44 -166 -29 -130 12 28 68
105 101 140 l33 35 -21 -70 c-14 -48 -22 -107 -24 -185 -4 -124 5 -193 33
-249 l17 -35 -42 -41 c-91 -90 -99 -253 -18 -361 50 -66 185 -129 263 -122 35
3 41 -2 104 -73 137 -156 294 -256 475 -302 163 -42 417 -32 583 24 165 55
326 172 423 307 27 38 34 42 73 42 111 0 227 65 282 158 23 40 27 58 27 122 0
62 -5 85 -28 133 -16 32 -37 63 -47 69 -18 11 -18 13 0 47 65 128 80 355 39
606 -5 33 -13 76 -18 95 l-8 35 -24 -52 c-13 -29 -26 -53 -29 -53 -3 0 -18 40
-33 89 -16 48 -43 116 -60 150 -99 191 -352 376 -653 477 -98 33 -112 35 -219
33 -63 -1 -116 -3 -117 -4z m2 -685 c0 -5 -4 -10 -9 -10 -11 0 -111 -100 -111
-112 0 -5 8 -7 18 -4 9 3 35 8 57 11 23 3 50 7 60 9 33 6 164 23 250 31 28 3
96 7 151 10 l102 5 39 -33 c57 -46 158 -183 182 -247 23 -61 40 -143 43 -207
1 -24 3 -43 4 -43 8 0 39 70 60 130 l21 65 8 -60 c17 -125 8 -321 -20 -440 -7
-33 -12 -62 -9 -64 7 -7 86 52 136 101 62 61 82 53 108 -41 20 -76 -21 -161
-99 -200 -46 -24 -117 -34 -159 -22 -30 9 -33 7 -62 -34 -68 -99 -204 -216
-315 -272 -50 -26 -170 -69 -216 -78 -72 -15 -283 -15 -349 0 -210 48 -401
170 -520 334 l-44 61 -60 -4 c-72 -4 -153 13 -189 40 -87 64 -93 209 -11 273
37 29 46 27 72 -22 24 -45 150 -176 139 -144 -33 95 -64 277 -47 277 5 0 11
-8 15 -19 6 -21 43 -57 50 -50 2 3 7 30 11 60 28 250 185 485 404 607 57 32
227 92 283 101 4 0 7 -3 7 -9z"/>
<path d="M828 1426 c-98 -26 -138 -76 -138 -171 0 -75 11 -95 29 -54 26 59
116 144 196 184 41 21 81 38 89 38 9 0 13 4 10 9 -8 12 -132 8 -186 -6z"/>
<path d="M1600 1429 c107 -46 161 -79 211 -131 31 -32 62 -71 69 -88 15 -35
29 -39 31 -7 1 12 3 39 4 60 4 60 -31 117 -89 146 -41 21 -66 26 -150 28 -79
2 -96 1 -76 -8z"/>
<path d="M917 1111 c-41 -27 -58 -56 -59 -100 -1 -86 76 -147 158 -127 37 10
82 60 89 100 19 101 -103 184 -188 127z"/>
<path d="M1554 1110 c-107 -69 -46 -244 79 -227 55 7 89 35 106 86 11 36 11
48 -1 79 -28 73 -119 104 -184 62z"/>
<path d="M1255 729 c-55 -27 -96 -130 -91 -228 14 -246 222 -285 270 -50 35
172 -68 332 -179 278z m110 -206 c33 -16 36 -21 32 -48 -10 -60 -17 -79 -44
-107 -62 -64 -134 -11 -147 109 -3 29 1 34 33 47 48 20 83 20 126 -1z"/>
</g>
</svg>
