<?xml version="1.0" standalone="no"?>
<!DOCTYPE svg PUBLIC "-//W3C//DTD SVG 20010904//EN"
 "http://www.w3.org/TR/2001/REC-SVG-20010904/DTD/svg10.dtd">
<svg version="1.0" xmlns="http://www.w3.org/2000/svg"
 width="361.000000pt" height="361.000000pt" viewBox="0 0 361.000000 361.000000"
 preserveAspectRatio="xMidYMid meet">
<metadata>
Created by potrace 1.11, written by Peter Selinger 2001-2013
</metadata>
<g transform="translate(0.000000,361.000000) scale(0.100000,-0.100000)"
fill="#000000" stroke="none">
<path d="M1710 3176 c-164 -49 -293 -143 -389 -286 -20 -31 -32 -37 -84 -47
-132 -25 -271 -128 -327 -242 -14 -28 -30 -51 -36 -51 -22 0 -182 -84 -234
-123 -230 -171 -361 -427 -362 -707 0 -52 3 -111 6 -130 4 -19 9 -48 12 -64 3
-16 14 -55 25 -88 64 -191 191 -358 349 -459 38 -24 69 -46 69 -49 1 -3 -40
-56 -90 -118 -52 -65 -89 -120 -87 -130 7 -34 152 -79 256 -80 66 0 141 29
227 88 24 16 47 30 51 30 4 0 28 -20 54 -44 75 -70 160 -105 268 -111 48 -3
131 11 176 30 17 7 18 4 13 -53 -6 -62 -5 -62 29 -89 25 -19 51 -28 90 -31
l54 -5 74 76 74 75 43 -10 c24 -5 53 -12 64 -14 11 -3 63 -5 115 -5 111 0 221
25 312 71 33 17 61 30 62 28 72 -164 127 -201 250 -164 65 20 106 54 140 116
24 45 28 60 23 102 -4 27 -17 70 -31 94 l-25 45 27 10 c71 26 90 35 132 63 88
60 156 160 179 265 14 62 6 167 -16 226 l-19 50 49 60 c62 76 121 198 146 300
27 110 23 290 -9 390 -39 121 -115 251 -194 331 -107 106 -295 199 -438 217
-24 3 -54 19 -85 45 -44 37 -105 70 -159 86 -12 4 -33 23 -47 44 -53 81 -151
164 -254 215 -136 69 -336 87 -483 43z m302 -171 c74 -20 158 -62 210 -108
l38 -33 -37 -19 c-64 -34 -149 -132 -131 -151 2 -2 29 6 59 18 42 17 75 21
149 22 85 0 102 -4 161 -31 154 -71 224 -210 186 -370 -8 -35 -12 -63 -8 -63
18 0 68 44 93 81 32 47 49 103 50 159 l0 38 40 -14 c239 -84 403 -321 392
-569 -1 -44 -5 -92 -8 -106 -23 -110 -94 -227 -191 -316 l-75 -70 37 -49 c69
-91 84 -179 44 -268 -52 -118 -185 -172 -314 -127 l-57 20 -17 -27 c-124 -204
-259 -290 -464 -298 -163 -6 -271 36 -404 159 -42 38 -77 68 -79 66 -1 -2 -17
-29 -36 -59 -55 -93 -106 -127 -211 -144 -38 -6 -126 27 -160 60 -43 41 -64
81 -78 146 l-12 58 -42 1 c-23 0 -49 2 -57 4 -8 1 -33 6 -55 9 -206 32 -406
184 -503 381 -55 111 -67 168 -66 310 0 113 4 141 27 210 74 224 255 400 475
461 l60 17 22 60 c27 73 86 139 155 175 39 20 68 26 130 28 l80 3 27 57 c107
222 343 337 570 279z m-1322 -2319 c45 -7 121 -34 96 -35 -27 -1 -139 29 -151
40 -7 7 -5 8 5 5 8 -3 31 -7 50 -10z m2185 -6 c11 -17 -25 -69 -75 -109 -84
-67 -155 -66 -115 1 44 75 167 145 190 108z"/>
<path d="M1055 2198 c-122 -16 -227 -64 -320 -150 -138 -126 -181 -300 -125
-507 42 -154 160 -310 279 -369 49 -23 68 -27 146 -27 111 1 188 30 286 107
203 161 287 398 223 629 -3 12 -22 19 -62 24 -81 10 -102 14 -120 24 -10 6 -1
8 28 7 72 -3 152 12 208 39 62 30 150 111 136 125 -12 12 -242 75 -329 89 -85
14 -269 19 -350 9z m54 -480 c42 -45 64 -116 59 -186 -5 -60 -30 -92 -72 -92
-33 0 -83 58 -104 120 -46 140 34 247 117 158z m-340 -197 c17 -16 33 -42 36
-58 4 -15 8 -33 10 -40 2 -7 -4 -22 -14 -34 -17 -21 -18 -21 -49 -5 -71 37
-90 165 -25 166 7 0 26 -13 42 -29z m255 -253 c-17 -58 -34 -79 -57 -72 -26 7
-57 33 -57 46 0 11 79 47 103 48 14 0 17 -5 11 -22z"/>
<path d="M1980 1711 c0 -5 12 -32 26 -59 46 -88 32 -195 -37 -298 -69 -102
-159 -144 -256 -120 -29 7 -33 5 -33 -12 0 -56 91 -111 189 -115 52 -2 54 -3
66 -37 40 -115 104 -218 157 -250 36 -22 104 -21 160 3 85 36 188 163 188 232
0 52 -64 169 -155 282 -63 79 -73 97 -77 140 -11 112 -54 185 -131 222 -45 22
-97 28 -97 12z m368 -624 c38 -31 -24 -136 -108 -181 -94 -51 -162 -23 -130
55 26 63 73 104 155 136 31 12 60 8 83 -10z"/>
<path d="M527 1628 c-14 -40 -24 -74 -23 -76 8 -7 77 -9 81 -2 3 5 1 19 -4 33
-5 14 -13 45 -16 68 -4 24 -8 45 -9 47 -2 1 -15 -30 -29 -70z"/>
</g>
</svg>
